<svg xmlns="http://www.w3.org/2000/svg" viewBox="-5 -5 45 45"><defs><style>.cls-1{fill:#262627;}</style></defs><g id="Layer_2" data-name="Layer 2"><g id="Layer_3" data-name="Layer 3"><g id="Group_12342" data-name="Group 12342"><g id="Group_6520" data-name="Group 6520"><g id="Group_6518" data-name="Group 6518"><rect id="Rectangle_13123" data-name="Rectangle 13123" class="cls-1" x="17.67" y="21.25" width="3.65" height="3.65" rx="1.82" transform="translate(-10.61 20.54) rotate(-45)"/><g id="Group_6516" data-name="Group 6516"><path id="Path_11074" data-name="Path 11074" class="cls-1" d="M23.35,36.92A1.74,1.74,0,0,1,21,36.75L10.28,26a6.57,6.57,0,0,1,0-9.28l8.46-8.46a1.76,1.76,0,0,1,2.35-.17,1.71,1.71,0,0,1,.21,2.4l-.1.11L12.79,19a3.32,3.32,0,0,0,0,4.7h0L23.46,34.42a1.7,1.7,0,0,1,0,2.4Z"/></g><g id="Group_6517" data-name="Group 6517"><path id="Path_11075" data-name="Path 11075" class="cls-1" d="M26.6,18.75,24.32,21a1.73,1.73,0,0,1-2.42,0,1.69,1.69,0,0,1,0-2.39h0l2.28-2.27a7.55,7.55,0,0,0,0-10.69l0,0a7.69,7.69,0,0,0-10.81,0L2.92,16A1.73,1.73,0,0,1,.5,16a1.69,1.69,0,0,1,0-2.39h0L11,3.21a11.14,11.14,0,0,1,15.65,0,11,11,0,0,1,.06,15.48Z"/></g></g></g></g></g></g></svg>